<svg width="240" height="50" viewBox="0 0 240 50" fill="none" xmlns="http://www.w3.org/2000/svg">
<path d="M2.68632 0.889668V6.1579H5.25053C5.69244 6.1579 6.09946 6.11138 6.47159 6.01834C6.84372 5.92531 7.16933 5.77412 7.44843 5.56479C7.72753 5.35546 7.94848 5.07634 8.11129 4.72745C8.2741 4.37856 8.3555 3.95408 8.3555 3.45401C8.3555 3.00045 8.27991 2.61086 8.12873 2.28523C7.98918 1.9596 7.77986 1.69793 7.50076 1.50022C7.22166 1.29089 6.89023 1.13971 6.50647 1.04667C6.13434 0.942002 5.7157 0.889668 5.25053 0.889668H2.68632ZM2.68632 6.85568V10.4667C2.68632 10.7574 2.70376 10.9958 2.73865 11.1819C2.78517 11.3564 2.84913 11.5075 2.93053 11.6355C3.01193 11.7518 3.1166 11.8564 3.24452 11.9495C3.37244 12.0425 3.5585 12.153 3.80271 12.2809V12.4205H0V12.2809C0.232582 12.153 0.412833 12.0425 0.540753 11.9495C0.668673 11.8564 0.773334 11.7518 0.854738 11.6355C0.947771 11.5075 1.01173 11.3564 1.04662 11.1819C1.08151 10.9958 1.09895 10.7574 1.09895 10.4667V2.16312C1.09895 1.87237 1.08151 1.63978 1.04662 1.46534C1.01173 1.27926 0.947771 1.12808 0.854738 1.01178C0.773334 0.883853 0.668673 0.773372 0.540753 0.680335C0.412833 0.587297 0.232582 0.476815 0 0.348889V0.209333H5.52963C6.18086 0.209333 6.77976 0.267481 7.32633 0.383778C7.87289 0.500075 8.34969 0.686149 8.7567 0.942001C9.17535 1.19785 9.50097 1.53511 9.73355 1.95378C9.96613 2.37245 10.0824 2.86671 10.0824 3.43656C10.0824 3.9599 9.98357 4.41927 9.78588 4.81468C9.58818 5.19845 9.3149 5.51827 8.96603 5.77412C8.62878 6.01834 8.24502 6.20442 7.81475 6.33235C7.3961 6.44864 6.94838 6.50679 6.47159 6.50679V6.55912C6.85535 6.60564 7.19259 6.68705 7.48332 6.80335C7.77405 6.91964 8.02989 7.07083 8.25084 7.2569C8.47179 7.43135 8.65786 7.6465 8.80903 7.90235C8.96021 8.1582 9.08813 8.44894 9.19279 8.77457L9.69866 10.2399C9.80332 10.5423 9.9138 10.8039 10.0301 11.0249C10.158 11.2342 10.2976 11.4145 10.4487 11.5657C10.6115 11.7052 10.786 11.8332 10.972 11.9495C11.1697 12.0541 11.4081 12.1646 11.6872 12.2809V12.4205H8.9137C8.83229 12.246 8.7567 12.089 8.68693 11.9495C8.62878 11.8099 8.57064 11.6762 8.51249 11.5482C8.46598 11.4087 8.41365 11.2749 8.3555 11.147C8.30898 11.0075 8.23921 10.8039 8.14618 10.5365L7.57054 8.8618C7.44262 8.48965 7.3147 8.18727 7.18678 7.95468C7.05886 7.71046 6.89605 7.50694 6.69836 7.34412C6.51229 7.18131 6.27971 7.0592 6.00061 6.97779C5.72151 6.89638 5.37845 6.85568 4.97144 6.85568H2.68632Z" fill="black"/>
<path d="M13.095 6.3149C13.095 5.40779 13.2404 4.57045 13.5311 3.8029C13.8334 3.03534 14.2579 2.37245 14.8045 1.81423C15.351 1.24437 15.9964 0.808261 16.7407 0.50589C17.485 0.191889 18.2874 0.0348885 19.1479 0.0348885C20.0085 0.0348885 20.8109 0.191889 21.5552 0.50589C22.2994 0.808261 22.9448 1.24437 23.4914 1.81423C24.038 2.37245 24.4566 3.03534 24.7473 3.8029C25.0497 4.57045 25.2009 5.40779 25.2009 6.3149C25.2009 7.22201 25.0497 8.05935 24.7473 8.82691C24.4566 9.59446 24.038 10.2632 23.4914 10.833C22.9448 11.3912 22.2994 11.8274 21.5552 12.1414C20.8109 12.4437 20.0085 12.5949 19.1479 12.5949C18.2874 12.5949 17.485 12.4437 16.7407 12.1414C15.9964 11.8274 15.351 11.3912 14.8045 10.833C14.2579 10.2632 13.8334 9.59446 13.5311 8.82691C13.2404 8.05935 13.095 7.22201 13.095 6.3149ZM23.4042 6.3149C23.4042 5.50082 23.3053 4.75653 23.1076 4.08201C22.9216 3.39586 22.6425 2.81438 22.2703 2.33756C21.8982 1.84912 21.4447 1.47697 20.9097 1.22111C20.3864 0.953631 19.7992 0.81989 19.1479 0.81989C18.4967 0.81989 17.9036 0.953631 17.3687 1.22111C16.8454 1.47697 16.3976 1.84912 16.0255 2.33756C15.6534 2.81438 15.3685 3.39586 15.1708 4.08201C14.9847 4.75653 14.8917 5.50082 14.8917 6.3149C14.8917 7.12898 14.9847 7.87909 15.1708 8.56524C15.3685 9.23976 15.6534 9.82124 16.0255 10.3097C16.3976 10.7865 16.8454 11.1587 17.3687 11.4261C17.9036 11.682 18.4967 11.8099 19.1479 11.8099C19.7992 11.8099 20.3864 11.682 20.9097 11.4261C21.4447 11.1587 21.8982 10.7865 22.2703 10.3097C22.6425 9.82124 22.9216 9.23976 23.1076 8.56524C23.3053 7.87909 23.4042 7.12898 23.4042 6.3149Z" fill="black"/>
<path d="M33.6102 0.802446C32.959 0.802446 32.3601 0.936187 31.8135 1.20367C31.2669 1.45952 30.796 1.83167 30.4006 2.32011C30.0052 2.79693 29.697 3.3726 29.4761 4.04712C29.2667 4.71001 29.1621 5.43686 29.1621 6.22768C29.1621 7.05338 29.2784 7.79768 29.5109 8.46057C29.7552 9.12346 30.0924 9.6875 30.5227 10.1527C30.953 10.6062 31.4414 10.9551 31.9879 11.1994C32.5461 11.4319 33.1392 11.5482 33.7672 11.5482C34.2324 11.5482 34.6626 11.4959 35.058 11.3912C35.4534 11.2866 35.8197 11.1238 36.157 10.9028C36.5058 10.6818 36.8198 10.3969 37.0989 10.048C37.3897 9.69913 37.6513 9.27465 37.8839 8.77457L38.1804 8.89668C38.0409 9.45491 37.8257 9.9608 37.535 10.4144C37.2559 10.8679 36.9129 11.2575 36.5058 11.5831C36.0988 11.9088 35.6278 12.1588 35.0929 12.3332C34.5696 12.5077 33.994 12.5949 33.366 12.5949C32.4938 12.5949 31.6856 12.4437 30.9413 12.1414C30.2087 11.839 29.5749 11.4087 29.04 10.8505C28.505 10.2806 28.0922 9.61191 27.8015 8.84435C27.5107 8.07679 27.3654 7.23364 27.3654 6.3149C27.3654 5.41942 27.5166 4.5879 27.8189 3.82034C28.1329 3.04115 28.569 2.37245 29.1272 1.81423C29.6854 1.24437 30.3424 0.808261 31.0983 0.50589C31.8542 0.191889 32.6624 0.0348885 33.523 0.0348885C33.8602 0.0348885 34.18 0.0581482 34.4824 0.104667C34.7847 0.151186 35.0638 0.220963 35.3197 0.314001C35.5755 0.395408 35.8081 0.49426 36.0174 0.610556C36.2384 0.726853 36.4419 0.854778 36.6279 0.994335L37.5176 0.0348885H37.6571V3.71567H37.5001C37.2443 3.27375 36.9826 2.87834 36.7152 2.52945C36.4593 2.18056 36.1744 1.87819 35.8604 1.62234C35.5581 1.36648 35.215 1.16878 34.8313 1.02922C34.4591 0.878039 34.0521 0.802446 33.6102 0.802446Z" fill="black"/>
<path d="M44.1438 12.4205H40.3411V12.2809C40.5737 12.153 40.754 12.0425 40.8819 11.9495C41.0098 11.8564 41.1145 11.7518 41.1959 11.6355C41.2889 11.5075 41.3529 11.3564 41.3877 11.1819C41.4226 10.9958 41.4401 10.7574 41.4401 10.4667V2.16312C41.4401 1.87237 41.4226 1.63978 41.3877 1.46534C41.3529 1.27926 41.2889 1.12808 41.1959 1.01178C41.1145 0.883853 41.0098 0.773372 40.8819 0.680335C40.754 0.587297 40.5737 0.476815 40.3411 0.348889V0.209333H44.1438V0.348889C43.8996 0.476815 43.7136 0.587297 43.5856 0.680335C43.4577 0.773372 43.3531 0.883853 43.2717 1.01178C43.1903 1.12808 43.1263 1.27926 43.0798 1.46534C43.0449 1.63978 43.0274 1.87237 43.0274 2.16312V6.68124L48.3478 1.727C48.4059 1.66885 48.4582 1.61071 48.5047 1.55256C48.5513 1.49441 48.5862 1.44208 48.6094 1.39556C48.6443 1.33741 48.6676 1.28508 48.6792 1.23856C48.6908 1.19204 48.6966 1.13971 48.6966 1.08156C48.6966 1.01178 48.6792 0.947817 48.6443 0.889668C48.6094 0.83152 48.5571 0.773372 48.4873 0.715224C48.4292 0.657075 48.3594 0.604742 48.278 0.558224C48.1966 0.500075 48.0861 0.430296 47.9466 0.348889V0.209333H51.5574V0.348889C51.2667 0.488445 51.005 0.628001 50.7724 0.767556C50.5398 0.895483 50.3189 1.02922 50.1096 1.16878C49.9002 1.30834 49.6967 1.45952 49.499 1.62234C49.3013 1.78515 49.0978 1.96541 48.8885 2.16312L45.5393 5.26823L49.9351 10.4667C50.1328 10.6877 50.3189 10.8912 50.4933 11.0772C50.6794 11.2633 50.8596 11.4319 51.0341 11.5831C51.2085 11.7343 51.3829 11.8681 51.5574 11.9844C51.7435 12.1007 51.9295 12.1995 52.1156 12.2809V12.4205H48.2431V12.2809C48.3478 12.2228 48.4233 12.1762 48.4699 12.1414C48.528 12.1065 48.5803 12.0658 48.6269 12.0192C48.6734 11.9727 48.7083 11.9262 48.7315 11.8797C48.7664 11.8215 48.7838 11.7634 48.7838 11.7052C48.7838 11.6471 48.7722 11.5948 48.749 11.5482C48.7373 11.4901 48.7141 11.4319 48.6792 11.3738C48.6559 11.3157 48.621 11.2575 48.5745 11.1994C48.528 11.1296 48.4582 11.0365 48.3652 10.9202L44.4055 6.28001L43.0274 7.51857V10.4667C43.0274 10.7574 43.0449 10.9958 43.0798 11.1819C43.1263 11.3564 43.1903 11.5075 43.2717 11.6355C43.3531 11.7518 43.4577 11.8564 43.5856 11.9495C43.7136 12.0425 43.8996 12.153 44.1438 12.2809V12.4205Z" fill="black"/>
<path d="M64.2585 12.5949L60.9617 3.05278L57.8044 12.5949H57.6474L53.9668 2.198C53.8738 1.94215 53.7807 1.727 53.6877 1.55256C53.5947 1.37811 53.4958 1.22693 53.3911 1.099C53.2865 0.971076 53.1702 0.854779 53.0423 0.750112C52.9144 0.645445 52.7399 0.511704 52.519 0.348889V0.209333H56.2345V0.348889C56.0484 0.430296 55.8972 0.505889 55.7809 0.575668C55.6646 0.645445 55.5716 0.715223 55.5018 0.785001C55.432 0.843149 55.3797 0.912927 55.3448 0.994335C55.3099 1.06411 55.2925 1.14552 55.2925 1.23856C55.2925 1.29671 55.2983 1.35485 55.3099 1.413C55.3216 1.45952 55.3332 1.51767 55.3448 1.58745C55.3565 1.6456 55.403 1.79097 55.4844 2.02356L58.1009 9.50724L60.543 1.86656C60.4733 1.68048 60.3977 1.51767 60.3163 1.37811C60.2349 1.23856 60.1476 1.11645 60.0546 1.01178C59.9616 0.895483 59.8511 0.790816 59.7232 0.697778C59.6069 0.593112 59.4615 0.476815 59.2871 0.348889V0.209333H62.9851V0.348889C62.7991 0.430296 62.6421 0.505889 62.5142 0.575668C62.3979 0.645445 62.299 0.715223 62.2176 0.785001C62.1479 0.843149 62.0897 0.912927 62.0432 0.994335C62.0083 1.06411 61.9909 1.14552 61.9909 1.23856C61.9909 1.29671 61.9909 1.35485 61.9909 1.413C62.0025 1.47115 62.0141 1.53511 62.0257 1.60489C62.049 1.66304 62.0723 1.727 62.0955 1.79678C62.1188 1.86656 62.142 1.94215 62.1653 2.02356L64.6772 9.61191L67.1891 2.05845C67.2123 1.97704 67.2298 1.90726 67.2414 1.84911C67.2646 1.79097 67.2821 1.73863 67.2937 1.69211C67.3053 1.63397 67.3112 1.58163 67.3112 1.53511C67.3228 1.4886 67.3286 1.43626 67.3286 1.37811C67.3286 1.28508 67.3053 1.19785 67.2588 1.11645C67.2123 1.03504 67.1425 0.959446 67.0495 0.889668C66.9565 0.80826 66.846 0.732668 66.7181 0.66289C66.6018 0.581482 66.4332 0.476815 66.2122 0.348889V0.209333H69.5091V0.348889C69.2765 0.511704 69.0904 0.645445 68.9509 0.750112C68.8229 0.854779 68.7008 0.976891 68.5845 1.11645C68.4799 1.24437 68.3752 1.39556 68.2706 1.57C68.1775 1.74445 68.0903 1.95378 68.0089 2.198L64.4155 12.5949H64.2585Z" fill="black"/>
<path d="M70.6876 6.3149C70.6876 5.40779 70.833 4.57045 71.1237 3.8029C71.426 3.03534 71.8505 2.37245 72.3971 1.81423C72.9436 1.24437 73.5891 0.808261 74.3333 0.50589C75.0776 0.191889 75.88 0.0348885 76.7405 0.0348885C77.6011 0.0348885 78.4035 0.191889 79.1478 0.50589C79.892 0.808261 80.5374 1.24437 81.084 1.81423C81.6306 2.37245 82.0492 3.03534 82.3399 3.8029C82.6423 4.57045 82.7935 5.40779 82.7935 6.3149C82.7935 7.22201 82.6423 8.05935 82.3399 8.82691C82.0492 9.59446 81.6306 10.2632 81.084 10.833C80.5374 11.3912 79.892 11.8274 79.1478 12.1414C78.4035 12.4437 77.6011 12.5949 76.7405 12.5949C75.88 12.5949 75.0776 12.4437 74.3333 12.1414C73.5891 11.8274 72.9436 11.3912 72.3971 10.833C71.8505 10.2632 71.426 9.59446 71.1237 8.82691C70.833 8.05935 70.6876 7.22201 70.6876 6.3149ZM80.9968 6.3149C80.9968 5.50082 80.8979 4.75653 80.7002 4.08201C80.5142 3.39586 80.2351 2.81438 79.8629 2.33756C79.4908 1.84912 79.0373 1.47697 78.5023 1.22111C77.979 0.953631 77.3918 0.81989 76.7405 0.81989C76.0893 0.81989 75.4962 0.953631 74.9613 1.22111C74.438 1.47697 73.9903 1.84912 73.6181 2.33756C73.246 2.81438 72.9611 3.39586 72.7634 4.08201C72.5773 4.75653 72.4843 5.50082 72.4843 6.3149C72.4843 7.12898 72.5773 7.87909 72.7634 8.56524C72.9611 9.23976 73.246 9.82124 73.6181 10.3097C73.9903 10.7865 74.438 11.1587 74.9613 11.4261C75.4962 11.682 76.0893 11.8099 76.7405 11.8099C77.3918 11.8099 77.979 11.682 78.5023 11.4261C79.0373 11.1587 79.4908 10.7865 79.8629 10.3097C80.2351 9.82124 80.5142 9.23976 80.7002 8.56524C80.8979 7.87909 80.9968 7.12898 80.9968 6.3149Z" fill="black"/>
<path d="M84.958 6.3149C84.958 5.40779 85.1033 4.57045 85.3941 3.8029C85.6964 3.03534 86.1209 2.37245 86.6675 1.81423C87.214 1.24437 87.8594 0.808261 88.6037 0.50589C89.348 0.191889 90.1504 0.0348885 91.0109 0.0348885C91.8715 0.0348885 92.6739 0.191889 93.4181 0.50589C94.1624 0.808261 94.8078 1.24437 95.3544 1.81423C95.901 2.37245 96.3196 3.03534 96.6103 3.8029C96.9127 4.57045 97.0639 5.40779 97.0639 6.3149C97.0639 7.22201 96.9127 8.05935 96.6103 8.82691C96.3196 9.59446 95.901 10.2632 95.3544 10.833C94.8078 11.3912 94.1624 11.8274 93.4181 12.1414C92.6739 12.4437 91.8715 12.5949 91.0109 12.5949C90.1504 12.5949 89.348 12.4437 88.6037 12.1414C87.8594 11.8274 87.214 11.3912 86.6675 10.833C86.1209 10.2632 85.6964 9.59446 85.3941 8.82691C85.1033 8.05935 84.958 7.22201 84.958 6.3149ZM95.2672 6.3149C95.2672 5.50082 95.1683 4.75653 94.9706 4.08201C94.7846 3.39586 94.5055 2.81438 94.1333 2.33756C93.7612 1.84912 93.3077 1.47697 92.7727 1.22111C92.2494 0.953631 91.6622 0.81989 91.0109 0.81989C90.3597 0.81989 89.7666 0.953631 89.2317 1.22111C88.7084 1.47697 88.2607 1.84912 87.8885 2.33756C87.5164 2.81438 87.2315 3.39586 87.0338 4.08201C86.8477 4.75653 86.7547 5.50082 86.7547 6.3149C86.7547 7.12898 86.8477 7.87909 87.0338 8.56524C87.2315 9.23976 87.5164 9.82124 87.8885 10.3097C88.2607 10.7865 88.7084 11.1587 89.2317 11.4261C89.7666 11.682 90.3597 11.8099 91.0109 11.8099C91.6622 11.8099 92.2494 11.682 92.7727 11.4261C93.3077 11.1587 93.7612 10.7865 94.1333 10.3097C94.5055 9.82124 94.7846 9.23976 94.9706 8.56524C95.1683 7.87909 95.2672 7.12898 95.2672 6.3149Z" fill="black"/>
<path d="M101.915 2.16312V11.7401H104.932C105.421 11.7401 105.834 11.6936 106.171 11.6006C106.508 11.5075 106.811 11.3622 107.078 11.1645C107.345 10.9551 107.601 10.6876 107.846 10.362C108.101 10.0364 108.41 9.59446 108.77 9.03624H108.91L108.264 12.4205H99.2284V12.2809C99.461 12.153 99.6412 12.0425 99.7691 11.9495C99.897 11.8564 100.002 11.7518 100.083 11.6355C100.176 11.5075 100.24 11.3564 100.275 11.1819C100.31 10.9958 100.327 10.7574 100.327 10.4667V2.16312C100.327 1.87237 100.31 1.63978 100.275 1.46534C100.24 1.27926 100.176 1.12808 100.083 1.01178C100.002 0.883853 99.897 0.773372 99.7691 0.680335C99.6412 0.587297 99.461 0.476815 99.2284 0.348889V0.209333H103.031V0.348889C102.787 0.476815 102.601 0.587297 102.473 0.680335C102.345 0.773372 102.24 0.883853 102.159 1.01178C102.077 1.12808 102.014 1.27926 101.967 1.46534C101.932 1.63978 101.915 1.87237 101.915 2.16312Z" fill="black"/>
<path d="M118.976 12.4205H114.755V12.2809C114.987 12.153 115.167 12.0425 115.295 11.9495C115.423 11.8564 115.528 11.7518 115.609 11.6355C115.702 11.5075 115.766 11.3564 115.801 11.1819C115.836 10.9958 115.854 10.7574 115.854 10.4667V2.16312C115.854 1.87237 115.836 1.63978 115.801 1.46534C115.766 1.27926 115.702 1.12808 115.609 1.01178C115.528 0.883853 115.423 0.773372 115.295 0.680335C115.167 0.587297 114.987 0.476815 114.755 0.348889V0.209333H122.587C122.715 0.209333 122.825 0.209333 122.918 0.209333C123.023 0.197704 123.116 0.186074 123.197 0.174445C123.279 0.162815 123.348 0.151185 123.407 0.139555C123.476 0.127925 123.552 0.116296 123.633 0.104667L124.226 2.87834H124.087C123.692 2.42478 123.401 2.09915 123.215 1.90145C123.04 1.70374 122.831 1.5293 122.587 1.37811C122.343 1.2153 122.052 1.09319 121.715 1.01178C121.389 0.930372 120.982 0.889668 120.494 0.889668H117.441V6.03579H119.953C120.337 6.03579 120.633 6.01834 120.842 5.98346C121.063 5.94857 121.244 5.87879 121.383 5.77412C121.534 5.66946 121.668 5.51246 121.784 5.30312C121.901 5.08216 122.04 4.76816 122.203 4.36112H122.36V8.39079H122.203C122.04 7.98376 121.901 7.67557 121.784 7.46624C121.668 7.2569 121.534 7.0999 121.383 6.99524C121.232 6.87894 121.052 6.80335 120.842 6.76846C120.633 6.73357 120.337 6.71612 119.953 6.71612H117.441V10.4667C117.441 10.7458 117.47 10.9784 117.528 11.1645C117.586 11.3389 117.673 11.4901 117.79 11.618C117.918 11.7459 118.069 11.8564 118.243 11.9495C118.418 12.0309 118.662 12.1414 118.976 12.2809V12.4205Z" fill="black"/>
<path d="M126.112 6.3149C126.112 5.40779 126.257 4.57045 126.548 3.8029C126.85 3.03534 127.275 2.37245 127.821 1.81423C128.368 1.24437 129.013 0.808261 129.758 0.50589C130.502 0.191889 131.304 0.0348885 132.165 0.0348885C133.025 0.0348885 133.828 0.191889 134.572 0.50589C135.316 0.808261 135.962 1.24437 136.508 1.81423C137.055 2.37245 137.474 3.03534 137.764 3.8029C138.067 4.57045 138.218 5.40779 138.218 6.3149C138.218 7.22201 138.067 8.05935 137.764 8.82691C137.474 9.59446 137.055 10.2632 136.508 10.833C135.962 11.3912 135.316 11.8274 134.572 12.1414C133.828 12.4437 133.025 12.5949 132.165 12.5949C131.304 12.5949 130.502 12.4437 129.758 12.1414C129.013 11.8274 128.368 11.3912 127.821 10.833C127.275 10.2632 126.85 9.59446 126.548 8.82691C126.257 8.05935 126.112 7.22201 126.112 6.3149ZM136.421 6.3149C136.421 5.50082 136.322 4.75653 136.125 4.08201C135.939 3.39586 135.659 2.81438 135.287 2.33756C134.915 1.84912 134.462 1.47697 133.927 1.22111C133.403 0.953631 132.816 0.81989 132.165 0.81989C131.514 0.81989 130.921 0.953631 130.386 1.22111C129.862 1.47697 129.415 1.84912 129.043 2.33756C128.67 2.81438 128.385 3.39586 128.188 4.08201C128.002 4.75653 127.909 5.50082 127.909 6.3149C127.909 7.12898 128.002 7.87909 128.188 8.56524C128.385 9.23976 128.67 9.82124 129.043 10.3097C129.415 10.7865 129.862 11.1587 130.386 11.4261C130.921 11.682 131.514 11.8099 132.165 11.8099C132.816 11.8099 133.403 11.682 133.927 11.4261C134.462 11.1587 134.915 10.7865 135.287 10.3097C135.659 9.82124 135.939 9.23976 136.125 8.56524C136.322 7.87909 136.421 7.12898 136.421 6.3149Z" fill="black"/>
<path d="M150.238 2.18056C150.238 1.90145 150.209 1.66886 150.151 1.48278C150.093 1.29671 150.005 1.14552 149.889 1.02922C149.785 0.901298 149.662 0.796631 149.523 0.715224C149.395 0.622186 149.191 0.500075 148.912 0.348889V0.209333H152.384V0.348889C152.116 0.500075 151.913 0.622186 151.773 0.715224C151.645 0.796631 151.529 0.901298 151.424 1.02922C151.32 1.14552 151.238 1.29671 151.18 1.48278C151.133 1.66886 151.11 1.90145 151.11 2.18056V7.74535C151.11 8.52454 150.994 9.22231 150.761 9.83869C150.529 10.4434 150.197 10.9493 149.767 11.3564C149.337 11.7634 148.825 12.0716 148.232 12.2809C147.651 12.4902 147.011 12.5949 146.313 12.5949C145.464 12.5949 144.72 12.4844 144.08 12.2635C143.441 12.0309 142.912 11.7052 142.493 11.2866C142.074 10.8563 141.76 10.3446 141.551 9.75146C141.353 9.15835 141.255 8.48965 141.255 7.74535V2.16312C141.255 1.87237 141.231 1.63978 141.185 1.46534C141.15 1.27926 141.092 1.12808 141.01 1.01178C140.929 0.883853 140.824 0.773372 140.696 0.680335C140.568 0.587297 140.382 0.476815 140.138 0.348889V0.209333H143.958V0.348889C143.714 0.476815 143.528 0.587297 143.4 0.680335C143.272 0.773372 143.168 0.883853 143.086 1.01178C143.005 1.12808 142.941 1.27926 142.894 1.46534C142.859 1.63978 142.842 1.87237 142.842 2.16312V7.53602C142.842 8.22216 142.923 8.82691 143.086 9.35024C143.249 9.86194 143.482 10.2922 143.784 10.6411C144.098 10.9784 144.476 11.2342 144.918 11.4087C145.36 11.5831 145.86 11.6704 146.418 11.6704C146.999 11.6704 147.523 11.5889 147.988 11.4261C148.453 11.2633 148.854 11.0191 149.191 10.6935C149.529 10.3562 149.785 9.92591 149.959 9.40257C150.145 8.87924 150.238 8.26287 150.238 7.55346V2.18056Z" fill="black"/>
<path d="M164.242 9.24557V2.18056C164.242 1.90145 164.213 1.66886 164.154 1.48278C164.096 1.29671 164.015 1.14552 163.91 1.02922C163.806 0.901298 163.683 0.796631 163.544 0.715224C163.416 0.622186 163.212 0.500075 162.933 0.348889V0.209333H166.387V0.348889C166.108 0.500075 165.905 0.622186 165.777 0.715224C165.649 0.796631 165.532 0.901298 165.428 1.02922C165.323 1.14552 165.242 1.29671 165.184 1.48278C165.125 1.66886 165.096 1.90145 165.096 2.18056V12.56H164.852L156.095 1.65723V10.4492C156.095 10.7284 156.125 10.9609 156.183 11.147C156.241 11.3331 156.322 11.4901 156.427 11.618C156.532 11.7343 156.648 11.839 156.776 11.932C156.915 12.0134 157.125 12.1297 157.404 12.2809V12.4205H153.95V12.2809C154.229 12.1297 154.432 12.0134 154.56 11.932C154.688 11.839 154.805 11.7343 154.909 11.618C155.014 11.4901 155.095 11.3331 155.153 11.147C155.212 10.9609 155.241 10.7284 155.241 10.4492V2.16312C155.241 1.87237 155.223 1.63978 155.188 1.46534C155.153 1.27926 155.09 1.12808 154.996 1.01178C154.915 0.883853 154.81 0.773372 154.682 0.680335C154.555 0.587297 154.374 0.476815 154.142 0.348889V0.209333H157.02L164.242 9.24557Z" fill="black"/>
<path d="M168.276 12.4205V12.2809C168.508 12.153 168.689 12.0425 168.817 11.9495C168.945 11.8564 169.049 11.7518 169.131 11.6355C169.224 11.5075 169.288 11.3564 169.322 11.1819C169.357 10.9958 169.375 10.7574 169.375 10.4667V2.16312C169.375 1.87237 169.357 1.63978 169.322 1.46534C169.288 1.27926 169.224 1.12808 169.131 1.01178C169.049 0.883853 168.945 0.773372 168.817 0.680335C168.689 0.587297 168.508 0.476815 168.276 0.348889V0.209333H173.038C174.085 0.209333 175.027 0.348889 175.864 0.628001C176.713 0.907113 177.434 1.31415 178.027 1.84911C178.62 2.38408 179.068 3.02952 179.37 3.78545C179.684 4.52975 179.841 5.36708 179.841 6.29746C179.841 7.23946 179.684 8.08842 179.37 8.84435C179.068 9.60028 178.62 10.2457 178.027 10.7807C177.445 11.3157 176.736 11.7227 175.899 12.0018C175.073 12.2809 174.149 12.4205 173.125 12.4205H168.276ZM178.079 6.29746C178.079 5.47175 177.969 4.72745 177.748 4.06456C177.527 3.40167 177.195 2.83763 176.753 2.37245C176.312 1.89563 175.765 1.53511 175.114 1.29089C174.474 1.03504 173.742 0.907113 172.916 0.907113H170.962V11.7227H172.968C173.794 11.7227 174.521 11.6006 175.149 11.3564C175.788 11.1121 176.323 10.7574 176.753 10.2922C177.195 9.81543 177.527 9.24557 177.748 8.58268C177.969 7.90816 178.079 7.14642 178.079 6.29746Z" fill="black"/>
<path d="M186.846 2.56434L184.508 7.67557H189.218L186.846 2.56434ZM184.072 12.2809V12.4205H180.793V12.2809C181.014 12.1297 181.188 12.0018 181.316 11.8971C181.444 11.7808 181.56 11.6645 181.665 11.5482C181.781 11.4203 181.892 11.2691 181.996 11.0947C182.101 10.9202 182.217 10.6993 182.345 10.4318L187.229 0H187.317L192.201 10.4318C192.329 10.7109 192.439 10.9377 192.532 11.1121C192.637 11.2749 192.742 11.4203 192.846 11.5482C192.951 11.6762 193.067 11.7983 193.195 11.9146C193.323 12.0192 193.486 12.1414 193.684 12.2809V12.4205H189.881V12.2809C190.067 12.1995 190.218 12.1239 190.334 12.0541C190.462 11.9844 190.561 11.9204 190.631 11.8622C190.712 11.7925 190.765 11.7227 190.788 11.6529C190.823 11.5715 190.84 11.4843 190.84 11.3912C190.84 11.3331 190.834 11.2808 190.823 11.2342C190.811 11.1761 190.794 11.1179 190.771 11.0598C190.759 11.0017 190.736 10.9435 190.701 10.8854C190.677 10.8156 190.643 10.7342 190.596 10.6411L189.549 8.39079H184.177L183.165 10.6237C183.13 10.7051 183.095 10.7807 183.06 10.8505C183.037 10.9202 183.014 10.9842 182.991 11.0424C182.979 11.0889 182.967 11.1412 182.956 11.1994C182.956 11.2459 182.956 11.2982 182.956 11.3564C182.956 11.4494 182.979 11.5308 183.026 11.6006C183.072 11.6704 183.136 11.7401 183.217 11.8099C183.31 11.8797 183.421 11.9495 183.549 12.0192C183.677 12.089 183.851 12.1762 184.072 12.2809Z" fill="black"/>
<path d="M195.519 0.209333H204.049C204.176 0.209333 204.287 0.209333 204.38 0.209333C204.485 0.197704 204.578 0.186074 204.659 0.174445C204.74 0.162815 204.81 0.151185 204.868 0.139555C204.938 0.127925 205.014 0.116296 205.095 0.104667L205.671 3.38423H205.514C205.142 2.82601 204.868 2.4306 204.694 2.198C204.531 1.96541 204.333 1.74445 204.101 1.53511C203.88 1.31415 203.624 1.14552 203.333 1.02922C203.043 0.912927 202.7 0.854779 202.304 0.854779H200.577V10.4492C200.577 10.74 200.595 10.9784 200.63 11.1645C200.676 11.3389 200.746 11.4901 200.839 11.618C200.944 11.7459 201.071 11.8564 201.223 11.9495C201.374 12.0425 201.583 12.153 201.851 12.2809V12.4205H197.734V12.2809C198.001 12.153 198.211 12.0425 198.362 11.9495C198.513 11.8564 198.635 11.7518 198.728 11.6355C198.821 11.5075 198.885 11.3505 198.92 11.1645C198.967 10.9784 198.99 10.74 198.99 10.4492V0.854779H197.28C196.885 0.854779 196.536 0.912927 196.234 1.02922C195.943 1.14552 195.681 1.31415 195.449 1.53511C195.228 1.74445 195.03 1.96541 194.856 2.198C194.693 2.4306 194.425 2.82601 194.053 3.38423H193.896L194.472 0.104667C194.565 0.116296 194.641 0.127925 194.699 0.139555C194.757 0.151185 194.827 0.162815 194.908 0.174445C194.989 0.186074 195.077 0.197704 195.17 0.209333C195.274 0.209333 195.391 0.209333 195.519 0.209333Z" fill="black"/>
<path d="M208.626 2.16312C208.626 1.87237 208.608 1.63978 208.573 1.46534C208.538 1.27926 208.475 1.12808 208.381 1.01178C208.3 0.883853 208.195 0.773372 208.068 0.680335C207.94 0.587297 207.759 0.476815 207.527 0.348889V0.209333H211.329V0.348889C211.085 0.476815 210.899 0.587297 210.771 0.680335C210.643 0.773372 210.539 0.883853 210.457 1.01178C210.376 1.12808 210.312 1.27926 210.265 1.46534C210.231 1.63978 210.213 1.87237 210.213 2.16312V10.4667C210.213 10.7574 210.231 10.9958 210.265 11.1819C210.312 11.3564 210.376 11.5075 210.457 11.6355C210.539 11.7518 210.643 11.8564 210.771 11.9495C210.899 12.0425 211.085 12.153 211.329 12.2809V12.4205H207.527V12.2809C207.759 12.153 207.94 12.0425 208.068 11.9495C208.195 11.8564 208.3 11.7518 208.381 11.6355C208.475 11.5075 208.538 11.3564 208.573 11.1819C208.608 10.9958 208.626 10.7574 208.626 10.4667V2.16312Z" fill="black"/>
<path d="M213.484 6.3149C213.484 5.40779 213.63 4.57045 213.92 3.8029C214.223 3.03534 214.647 2.37245 215.194 1.81423C215.74 1.24437 216.386 0.808261 217.13 0.50589C217.874 0.191889 218.677 0.0348885 219.537 0.0348885C220.398 0.0348885 221.2 0.191889 221.944 0.50589C222.689 0.808261 223.334 1.24437 223.881 1.81423C224.427 2.37245 224.846 3.03534 225.137 3.8029C225.439 4.57045 225.59 5.40779 225.59 6.3149C225.59 7.22201 225.439 8.05935 225.137 8.82691C224.846 9.59446 224.427 10.2632 223.881 10.833C223.334 11.3912 222.689 11.8274 221.944 12.1414C221.2 12.4437 220.398 12.5949 219.537 12.5949C218.677 12.5949 217.874 12.4437 217.13 12.1414C216.386 11.8274 215.74 11.3912 215.194 10.833C214.647 10.2632 214.223 9.59446 213.92 8.82691C213.63 8.05935 213.484 7.22201 213.484 6.3149ZM223.793 6.3149C223.793 5.50082 223.694 4.75653 223.497 4.08201C223.311 3.39586 223.032 2.81438 222.66 2.33756C222.287 1.84912 221.834 1.47697 221.299 1.22111C220.776 0.953631 220.188 0.81989 219.537 0.81989C218.886 0.81989 218.293 0.953631 217.758 1.22111C217.235 1.47697 216.787 1.84912 216.415 2.33756C216.043 2.81438 215.758 3.39586 215.56 4.08201C215.374 4.75653 215.281 5.50082 215.281 6.3149C215.281 7.12898 215.374 7.87909 215.56 8.56524C215.758 9.23976 216.043 9.82124 216.415 10.3097C216.787 10.7865 217.235 11.1587 217.758 11.4261C218.293 11.682 218.886 11.8099 219.537 11.8099C220.188 11.8099 220.776 11.682 221.299 11.4261C221.834 11.1587 222.287 10.7865 222.66 10.3097C223.032 9.82124 223.311 9.23976 223.497 8.56524C223.694 7.87909 223.793 7.12898 223.793 6.3149Z" fill="black"/>
<path d="M237.854 9.24557V2.18056C237.854 1.90145 237.825 1.66886 237.767 1.48278C237.709 1.29671 237.628 1.14552 237.523 1.02922C237.418 0.901298 237.296 0.796631 237.157 0.715224C237.029 0.622186 236.825 0.500075 236.546 0.348889V0.209333H240V0.348889C239.721 0.500075 239.517 0.622186 239.389 0.715224C239.262 0.796631 239.145 0.901298 239.041 1.02922C238.936 1.14552 238.855 1.29671 238.796 1.48278C238.738 1.66886 238.709 1.90145 238.709 2.18056V12.56H238.465L229.708 1.65723V10.4492C229.708 10.7284 229.737 10.9609 229.795 11.147C229.854 11.3331 229.935 11.4901 230.04 11.618C230.144 11.7343 230.261 11.839 230.389 11.932C230.528 12.0134 230.737 12.1297 231.017 12.2809V12.4205H227.563V12.2809C227.842 12.1297 228.045 12.0134 228.173 11.932C228.301 11.839 228.417 11.7343 228.522 11.618C228.627 11.4901 228.708 11.3331 228.766 11.147C228.824 10.9609 228.854 10.7284 228.854 10.4492V2.16312C228.854 1.87237 228.836 1.63978 228.801 1.46534C228.766 1.27926 228.702 1.12808 228.609 1.01178C228.528 0.883853 228.423 0.773372 228.295 0.680335C228.167 0.587297 227.987 0.476815 227.755 0.348889V0.209333H230.633L237.854 9.24557Z" fill="black"/>
<line y1="16.0949" x2="240" y2="16.0949" stroke="#F2920C"/>
<path d="M5.53221 32.9549H0V32.8148C0.233427 32.6864 0.414329 32.5755 0.542713 32.4822C0.671098 32.3888 0.776148 32.2838 0.857848 32.167C0.939547 32.0387 0.997884 31.8869 1.0329 31.7119C1.06791 31.5251 1.08545 31.2859 1.08545 30.9941V22.6607C1.08545 22.369 1.06791 22.1355 1.0329 21.9605C0.997884 21.7737 0.939547 21.622 0.857848 21.5053C0.776148 21.3769 0.671098 21.266 0.542713 21.1726C0.414329 21.0793 0.233427 20.9684 0 20.84V20.7H5.11204C5.76564 20.7 6.35505 20.7583 6.88026 20.875C7.41715 20.9917 7.87815 21.1726 8.2633 21.4177C8.66013 21.6628 8.96357 21.9838 9.17366 22.3806C9.39541 22.7774 9.5063 23.2501 9.5063 23.7987C9.5063 24.1955 9.42459 24.5632 9.26119 24.9016C9.0978 25.2401 8.8702 25.5377 8.57842 25.7945C8.2983 26.0396 7.97151 26.2322 7.59803 26.3722C7.22455 26.5123 6.82773 26.594 6.40756 26.6173V26.6523C6.90943 26.6757 7.37626 26.7515 7.8081 26.8799C8.25161 27.0083 8.63679 27.195 8.96358 27.4401C9.29038 27.6852 9.54715 27.9945 9.7339 28.368C9.92064 28.7415 10.014 29.1675 10.014 29.646C10.014 30.2063 9.90895 30.6965 9.69887 31.1166C9.48878 31.5368 9.18534 31.8869 8.78851 32.167C8.39169 32.4355 7.919 32.6339 7.37045 32.7623C6.8219 32.8907 6.20915 32.9549 5.53221 32.9549ZM2.67858 21.3827V26.3372H4.86694C5.29878 26.3372 5.68978 26.2964 6.03992 26.2147C6.40173 26.1213 6.71684 25.9812 6.98528 25.7945C7.25372 25.5961 7.46382 25.3393 7.61555 25.0242C7.76728 24.6974 7.84313 24.3006 7.84313 23.8337C7.84313 23.4135 7.77311 23.0517 7.63305 22.7483C7.50467 22.4331 7.31208 22.1764 7.05531 21.978C6.79854 21.7796 6.48927 21.6337 6.12745 21.5403C5.76564 21.4352 5.35715 21.3827 4.90196 21.3827H2.67858ZM5.0245 27.0025H2.67858V32.2721H5.26961C5.73646 32.2721 6.15662 32.2254 6.5301 32.132C6.90359 32.027 7.22457 31.8694 7.49301 31.6593C7.77312 31.4376 7.98318 31.1575 8.12324 30.819C8.27497 30.4805 8.35084 30.0837 8.35084 29.6285C8.35084 29.1733 8.27497 28.7824 8.12324 28.4556C7.97151 28.1171 7.74977 27.8428 7.45798 27.6327C7.17787 27.411 6.83356 27.2534 6.42507 27.16C6.01657 27.055 5.54972 27.0025 5.0245 27.0025Z" fill="#F2920C"/>
<path d="M19.7152 24.639V28.6831H19.5576C19.3942 28.2746 19.2542 27.9654 19.1375 27.7553C19.0208 27.5335 18.8865 27.3701 18.7348 27.2651C18.5947 27.16 18.4139 27.09 18.1921 27.055C17.982 27.02 17.6844 27.0025 17.2992 27.0025H14.7782V32.2721H18.2446C18.7231 32.2721 19.1317 32.2312 19.4701 32.1495C19.8203 32.0678 20.1295 31.9394 20.398 31.7644C20.6664 31.5893 20.9173 31.3617 21.1508 31.0816C21.3842 30.8015 21.6585 30.428 21.9736 29.9612H22.1137L21.5534 32.9549H12.0822V32.8148C12.3156 32.6864 12.4965 32.5755 12.6249 32.4822C12.7533 32.3888 12.8583 32.2838 12.94 32.167C13.0334 32.0387 13.0976 31.8869 13.1326 31.7119C13.1676 31.5251 13.1851 31.2859 13.1851 30.9941V22.6607C13.1851 22.369 13.1676 22.1355 13.1326 21.9605C13.0976 21.7737 13.0334 21.622 12.94 21.5053C12.8583 21.3769 12.7533 21.266 12.6249 21.1726C12.4965 21.0793 12.3156 20.9684 12.0822 20.84V20.7H19.9428C20.0712 20.7 20.1821 20.7 20.2754 20.7C20.3805 20.6883 20.4738 20.6766 20.5555 20.6649C20.6372 20.6533 20.7073 20.6416 20.7656 20.6299C20.8357 20.6183 20.9115 20.6066 20.9932 20.5949L21.5884 23.3785H21.4484C21.0516 22.9233 20.7598 22.5965 20.5731 22.3981C20.398 22.1997 20.1879 22.0246 19.9428 21.8729C19.6977 21.7095 19.4059 21.587 19.0675 21.5053C18.7407 21.4236 18.3321 21.3827 17.8419 21.3827H14.7782V26.3197H17.2992C17.6844 26.3197 17.982 26.3022 18.1921 26.2672C18.4022 26.2322 18.5831 26.1621 18.7348 26.0571C18.8865 25.9404 19.0208 25.777 19.1375 25.5669C19.2542 25.3568 19.3942 25.0475 19.5576 24.639H19.7152Z" fill="#F2920C"/>
<path d="M26.8266 21.3827V26.6698H29.4001C29.8436 26.6698 30.2522 26.6232 30.6256 26.5298C30.9991 26.4364 31.3259 26.2847 31.606 26.0746C31.8861 25.8645 32.1079 25.5844 32.2713 25.2343C32.4347 24.8841 32.5164 24.4581 32.5164 23.9563C32.5164 23.5011 32.4405 23.1101 32.2888 22.7833C32.1487 22.4565 31.9386 22.1939 31.6585 21.9955C31.3784 21.7854 31.0458 21.6337 30.6606 21.5403C30.2871 21.4352 29.867 21.3827 29.4001 21.3827H26.8266ZM26.8266 27.3701V30.9941C26.8266 31.2859 26.8441 31.5251 26.8791 31.7119C26.9258 31.8869 26.99 32.0387 27.0717 32.167C27.1534 32.2838 27.2585 32.3888 27.3868 32.4822C27.5152 32.5755 27.7019 32.6864 27.947 32.8148V32.9549H24.1305V32.8148C24.3639 32.6864 24.5449 32.5755 24.6733 32.4822C24.8016 32.3888 24.9067 32.2838 24.9884 32.167C25.0817 32.0387 25.1459 31.8869 25.1809 31.7119C25.216 31.5251 25.2335 31.2859 25.2335 30.9941V22.6607C25.2335 22.369 25.216 22.1355 25.1809 21.9605C25.1459 21.7737 25.0817 21.622 24.9884 21.5053C24.9067 21.3769 24.8016 21.266 24.6733 21.1726C24.5449 21.0793 24.3639 20.9684 24.1305 20.84V20.7H29.6802C30.3338 20.7 30.9349 20.7583 31.4835 20.875C32.032 20.9917 32.5105 21.1785 32.919 21.4352C33.3392 21.692 33.666 22.0305 33.8994 22.4507C34.1328 22.8708 34.2496 23.3669 34.2496 23.9387C34.2496 24.464 34.1504 24.925 33.952 25.3218C33.7536 25.707 33.4793 26.0279 33.1291 26.2847C32.7907 26.5298 32.4055 26.7165 31.9737 26.8449C31.5535 26.9616 31.1042 27.02 30.6256 27.02V27.0725C31.0108 27.1192 31.3493 27.2009 31.6411 27.3176C31.9328 27.4343 32.1896 27.586 32.4113 27.7728C32.6331 27.9479 32.8199 28.1638 32.9716 28.4205C33.1233 28.6773 33.2517 28.9691 33.3567 29.2959L33.8644 30.7665C33.9695 31.0699 34.0804 31.3325 34.1971 31.5543C34.3255 31.7644 34.4655 31.9453 34.6172 32.097C34.7806 32.2371 34.9557 32.3655 35.1424 32.4822C35.3408 32.5872 35.5801 32.6981 35.8602 32.8148V32.9549H33.0766C32.9949 32.7798 32.919 32.6222 32.849 32.4822C32.7906 32.3421 32.7323 32.2079 32.674 32.0795C32.6273 31.9394 32.5747 31.8052 32.5164 31.6768C32.4697 31.5368 32.3997 31.3325 32.3063 31.0641L31.7286 29.3834C31.6002 29.0099 31.4718 28.7065 31.3434 28.4731C31.215 28.228 31.0516 28.0237 30.8532 27.8603C30.6665 27.6969 30.433 27.5744 30.1529 27.4927C29.8728 27.411 29.5285 27.3701 29.12 27.3701H26.8266Z" fill="#F2920C"/>
<path d="M39.9692 22.6607V32.2721H42.9979C43.4881 32.2721 43.9024 32.2254 44.2409 32.132C44.5793 32.0387 44.8828 31.8928 45.1512 31.6944C45.4197 31.4843 45.6765 31.2158 45.9216 30.889C46.1783 30.5622 46.4876 30.1187 46.8494 29.5585H46.9895L46.3417 32.9549H37.2731V32.8148C37.5065 32.6864 37.6874 32.5755 37.8158 32.4822C37.9442 32.3888 38.0492 32.2838 38.1309 32.167C38.2243 32.0387 38.2885 31.8869 38.3235 31.7119C38.3585 31.5251 38.376 31.2859 38.376 30.9941V22.6607C38.376 22.369 38.3585 22.1355 38.3235 21.9605C38.2885 21.7737 38.2243 21.622 38.1309 21.5053C38.0492 21.3769 37.9442 21.266 37.8158 21.1726C37.6874 21.0793 37.5065 20.9684 37.2731 20.84V20.7H41.0896V20.84C40.8445 20.9684 40.6578 21.0793 40.5294 21.1726C40.401 21.266 40.296 21.3769 40.2143 21.5053C40.1326 21.622 40.0684 21.7737 40.0217 21.9605C39.9867 22.1355 39.9692 22.369 39.9692 22.6607Z" fill="#F2920C"/>
<path d="M49.9286 22.6607C49.9286 22.369 49.9111 22.1355 49.8761 21.9605C49.8411 21.7737 49.7769 21.622 49.6835 21.5053C49.6018 21.3769 49.4968 21.266 49.3684 21.1726C49.24 21.0793 49.0591 20.9684 48.8257 20.84V20.7H52.6422V20.84C52.3971 20.9684 52.2104 21.0793 52.082 21.1726C51.9536 21.266 51.8486 21.3769 51.7669 21.5053C51.6852 21.622 51.6209 21.7737 51.5743 21.9605C51.5392 22.1355 51.5218 22.369 51.5218 22.6607V30.9941C51.5218 31.2859 51.5392 31.5251 51.5743 31.7119C51.6209 31.8869 51.6852 32.0387 51.7669 32.167C51.8486 32.2838 51.9536 32.3888 52.082 32.4822C52.2104 32.5755 52.3971 32.6864 52.6422 32.8148V32.9549H48.8257V32.8148C49.0591 32.6864 49.24 32.5755 49.3684 32.4822C49.4968 32.3888 49.6018 32.2838 49.6835 32.167C49.7769 32.0387 49.8411 31.8869 49.8761 31.7119C49.9111 31.5251 49.9286 31.2859 49.9286 30.9941V22.6607Z" fill="#F2920C"/>
<path d="M64.9413 29.7686V22.6782C64.9413 22.3981 64.9121 22.1647 64.8537 21.978C64.7954 21.7912 64.7137 21.6395 64.6086 21.5228C64.5036 21.3944 64.3811 21.2894 64.241 21.2077C64.1126 21.1143 63.9084 20.9917 63.6283 20.84V20.7H67.0947V20.84C66.8145 20.9917 66.6103 21.1143 66.4819 21.2077C66.3535 21.2894 66.2368 21.3944 66.1317 21.5228C66.0267 21.6395 65.945 21.7912 65.8867 21.978C65.8283 22.1647 65.7991 22.3981 65.7991 22.6782V33.0949H65.554L56.7655 22.153V30.9766C56.7655 31.2567 56.7947 31.4901 56.853 31.6768C56.9114 31.8636 56.9931 32.0211 57.0981 32.1495C57.2032 32.2662 57.3199 32.3713 57.4483 32.4647C57.5883 32.5464 57.7984 32.6631 58.0785 32.8148V32.9549H54.6121V32.8148C54.8923 32.6631 55.0965 32.5464 55.2249 32.4647C55.3533 32.3713 55.47 32.2662 55.575 32.1495C55.6801 32.0211 55.7618 31.8636 55.8201 31.6768C55.8785 31.4901 55.9077 31.2567 55.9077 30.9766V22.6607C55.9077 22.369 55.8901 22.1355 55.8551 21.9605C55.8201 21.7737 55.7559 21.622 55.6625 21.5053C55.5808 21.3769 55.4758 21.266 55.3474 21.1726C55.2191 21.0793 55.0381 20.9684 54.8047 20.84V20.7H57.6934L64.9413 29.7686Z" fill="#F2920C"/>
<path d="M5.53221 32.9549H0V32.8148C0.233427 32.6864 0.414329 32.5755 0.542713 32.4822C0.671098 32.3888 0.776148 32.2838 0.857848 32.167C0.939547 32.0387 0.997884 31.8869 1.0329 31.7119C1.06791 31.5251 1.08545 31.2859 1.08545 30.9941V22.6607C1.08545 22.369 1.06791 22.1355 1.0329 21.9605C0.997884 21.7737 0.939547 21.622 0.857848 21.5053C0.776148 21.3769 0.671098 21.266 0.542713 21.1726C0.414329 21.0793 0.233427 20.9684 0 20.84V20.7H5.11204C5.76564 20.7 6.35505 20.7583 6.88026 20.875C7.41715 20.9917 7.87815 21.1726 8.2633 21.4177C8.66013 21.6628 8.96357 21.9838 9.17366 22.3806C9.39541 22.7774 9.5063 23.2501 9.5063 23.7987C9.5063 24.1955 9.42459 24.5632 9.26119 24.9016C9.0978 25.2401 8.8702 25.5377 8.57842 25.7945C8.2983 26.0396 7.97151 26.2322 7.59803 26.3722C7.22455 26.5123 6.82773 26.594 6.40756 26.6173V26.6523C6.90943 26.6757 7.37626 26.7515 7.8081 26.8799C8.25161 27.0083 8.63679 27.195 8.96358 27.4401C9.29038 27.6852 9.54715 27.9945 9.7339 28.368C9.92064 28.7415 10.014 29.1675 10.014 29.646C10.014 30.2063 9.90895 30.6965 9.69887 31.1166C9.48878 31.5368 9.18534 31.8869 8.78851 32.167C8.39169 32.4355 7.919 32.6339 7.37045 32.7623C6.8219 32.8907 6.20915 32.9549 5.53221 32.9549ZM2.67858 21.3827V26.3372H4.86694C5.29878 26.3372 5.68978 26.2964 6.03992 26.2147C6.40173 26.1213 6.71684 25.9812 6.98528 25.7945C7.25372 25.5961 7.46382 25.3393 7.61555 25.0242C7.76728 24.6974 7.84313 24.3006 7.84313 23.8337C7.84313 23.4135 7.77311 23.0517 7.63305 22.7483C7.50467 22.4331 7.31208 22.1764 7.05531 21.978C6.79854 21.7796 6.48927 21.6337 6.12745 21.5403C5.76564 21.4352 5.35715 21.3827 4.90196 21.3827H2.67858ZM5.0245 27.0025H2.67858V32.2721H5.26961C5.73646 32.2721 6.15662 32.2254 6.5301 32.132C6.90359 32.027 7.22457 31.8694 7.49301 31.6593C7.77312 31.4376 7.98318 31.1575 8.12324 30.819C8.27497 30.4805 8.35084 30.0837 8.35084 29.6285C8.35084 29.1733 8.27497 28.7824 8.12324 28.4556C7.97151 28.1171 7.74977 27.8428 7.45798 27.6327C7.17787 27.411 6.83356 27.2534 6.42507 27.16C6.01657 27.055 5.54972 27.0025 5.0245 27.0025Z" fill="#F2920C"/>
<path d="M19.7152 24.639V28.6831H19.5576C19.3942 28.2746 19.2542 27.9654 19.1375 27.7553C19.0208 27.5335 18.8865 27.3701 18.7348 27.2651C18.5947 27.16 18.4139 27.09 18.1921 27.055C17.982 27.02 17.6844 27.0025 17.2992 27.0025H14.7782V32.2721H18.2446C18.7231 32.2721 19.1317 32.2312 19.4701 32.1495C19.8203 32.0678 20.1295 31.9394 20.398 31.7644C20.6664 31.5893 20.9173 31.3617 21.1508 31.0816C21.3842 30.8015 21.6585 30.428 21.9736 29.9612H22.1137L21.5534 32.9549H12.0822V32.8148C12.3156 32.6864 12.4965 32.5755 12.6249 32.4822C12.7533 32.3888 12.8583 32.2838 12.94 32.167C13.0334 32.0387 13.0976 31.8869 13.1326 31.7119C13.1676 31.5251 13.1851 31.2859 13.1851 30.9941V22.6607C13.1851 22.369 13.1676 22.1355 13.1326 21.9605C13.0976 21.7737 13.0334 21.622 12.94 21.5053C12.8583 21.3769 12.7533 21.266 12.6249 21.1726C12.4965 21.0793 12.3156 20.9684 12.0822 20.84V20.7H19.9428C20.0712 20.7 20.1821 20.7 20.2754 20.7C20.3805 20.6883 20.4738 20.6766 20.5555 20.6649C20.6372 20.6533 20.7073 20.6416 20.7656 20.6299C20.8357 20.6183 20.9115 20.6066 20.9932 20.5949L21.5884 23.3785H21.4484C21.0516 22.9233 20.7598 22.5965 20.5731 22.3981C20.398 22.1997 20.1879 22.0246 19.9428 21.8729C19.6977 21.7095 19.4059 21.587 19.0675 21.5053C18.7407 21.4236 18.3321 21.3827 17.8419 21.3827H14.7782V26.3197H17.2992C17.6844 26.3197 17.982 26.3022 18.1921 26.2672C18.4022 26.2322 18.5831 26.1621 18.7348 26.0571C18.8865 25.9404 19.0208 25.777 19.1375 25.5669C19.2542 25.3568 19.3942 25.0475 19.5576 24.639H19.7152Z" fill="#F2920C"/>
<path d="M26.8266 21.3827V26.6698H29.4001C29.8436 26.6698 30.2522 26.6232 30.6256 26.5298C30.9991 26.4364 31.3259 26.2847 31.606 26.0746C31.8861 25.8645 32.1079 25.5844 32.2713 25.2343C32.4347 24.8841 32.5164 24.4581 32.5164 23.9563C32.5164 23.5011 32.4405 23.1101 32.2888 22.7833C32.1487 22.4565 31.9386 22.1939 31.6585 21.9955C31.3784 21.7854 31.0458 21.6337 30.6606 21.5403C30.2871 21.4352 29.867 21.3827 29.4001 21.3827H26.8266ZM26.8266 27.3701V30.9941C26.8266 31.2859 26.8441 31.5251 26.8791 31.7119C26.9258 31.8869 26.99 32.0387 27.0717 32.167C27.1534 32.2838 27.2585 32.3888 27.3868 32.4822C27.5152 32.5755 27.7019 32.6864 27.947 32.8148V32.9549H24.1305V32.8148C24.3639 32.6864 24.5449 32.5755 24.6733 32.4822C24.8016 32.3888 24.9067 32.2838 24.9884 32.167C25.0817 32.0387 25.1459 31.8869 25.1809 31.7119C25.216 31.5251 25.2335 31.2859 25.2335 30.9941V22.6607C25.2335 22.369 25.216 22.1355 25.1809 21.9605C25.1459 21.7737 25.0817 21.622 24.9884 21.5053C24.9067 21.3769 24.8016 21.266 24.6733 21.1726C24.5449 21.0793 24.3639 20.9684 24.1305 20.84V20.7H29.6802C30.3338 20.7 30.9349 20.7583 31.4835 20.875C32.032 20.9917 32.5105 21.1785 32.919 21.4352C33.3392 21.692 33.666 22.0305 33.8994 22.4507C34.1328 22.8708 34.2496 23.3669 34.2496 23.9387C34.2496 24.464 34.1504 24.925 33.952 25.3218C33.7536 25.707 33.4793 26.0279 33.1291 26.2847C32.7907 26.5298 32.4055 26.7165 31.9737 26.8449C31.5535 26.9616 31.1042 27.02 30.6256 27.02V27.0725C31.0108 27.1192 31.3493 27.2009 31.6411 27.3176C31.9328 27.4343 32.1896 27.586 32.4113 27.7728C32.6331 27.9479 32.8199 28.1638 32.9716 28.4205C33.1233 28.6773 33.2517 28.9691 33.3567 29.2959L33.8644 30.7665C33.9695 31.0699 34.0804 31.3325 34.1971 31.5543C34.3255 31.7644 34.4655 31.9453 34.6172 32.097C34.7806 32.2371 34.9557 32.3655 35.1424 32.4822C35.3408 32.5872 35.5801 32.6981 35.8602 32.8148V32.9549H33.0766C32.9949 32.7798 32.919 32.6222 32.849 32.4822C32.7906 32.3421 32.7323 32.2079 32.674 32.0795C32.6273 31.9394 32.5747 31.8052 32.5164 31.6768C32.4697 31.5368 32.3997 31.3325 32.3063 31.0641L31.7286 29.3834C31.6002 29.0099 31.4718 28.7065 31.3434 28.4731C31.215 28.228 31.0516 28.0237 30.8532 27.8603C30.6665 27.6969 30.433 27.5744 30.1529 27.4927C29.8728 27.411 29.5285 27.3701 29.12 27.3701H26.8266Z" fill="#F2920C"/>
<path d="M39.9692 22.6607V32.2721H42.9979C43.4881 32.2721 43.9024 32.2254 44.2409 32.132C44.5793 32.0387 44.8828 31.8928 45.1512 31.6944C45.4197 31.4843 45.6765 31.2158 45.9216 30.889C46.1783 30.5622 46.4876 30.1187 46.8494 29.5585H46.9895L46.3417 32.9549H37.2731V32.8148C37.5065 32.6864 37.6874 32.5755 37.8158 32.4822C37.9442 32.3888 38.0492 32.2838 38.1309 32.167C38.2243 32.0387 38.2885 31.8869 38.3235 31.7119C38.3585 31.5251 38.376 31.2859 38.376 30.9941V22.6607C38.376 22.369 38.3585 22.1355 38.3235 21.9605C38.2885 21.7737 38.2243 21.622 38.1309 21.5053C38.0492 21.3769 37.9442 21.266 37.8158 21.1726C37.6874 21.0793 37.5065 20.9684 37.2731 20.84V20.7H41.0896V20.84C40.8445 20.9684 40.6578 21.0793 40.5294 21.1726C40.401 21.266 40.296 21.3769 40.2143 21.5053C40.1326 21.622 40.0684 21.7737 40.0217 21.9605C39.9867 22.1355 39.9692 22.369 39.9692 22.6607Z" fill="#F2920C"/>
<path d="M49.9286 22.6607C49.9286 22.369 49.9111 22.1355 49.8761 21.9605C49.8411 21.7737 49.7769 21.622 49.6835 21.5053C49.6018 21.3769 49.4968 21.266 49.3684 21.1726C49.24 21.0793 49.0591 20.9684 48.8257 20.84V20.7H52.6422V20.84C52.3971 20.9684 52.2104 21.0793 52.082 21.1726C51.9536 21.266 51.8486 21.3769 51.7669 21.5053C51.6852 21.622 51.6209 21.7737 51.5743 21.9605C51.5392 22.1355 51.5218 22.369 51.5218 22.6607V30.9941C51.5218 31.2859 51.5392 31.5251 51.5743 31.7119C51.6209 31.8869 51.6852 32.0387 51.7669 32.167C51.8486 32.2838 51.9536 32.3888 52.082 32.4822C52.2104 32.5755 52.3971 32.6864 52.6422 32.8148V32.9549H48.8257V32.8148C49.0591 32.6864 49.24 32.5755 49.3684 32.4822C49.4968 32.3888 49.6018 32.2838 49.6835 32.167C49.7769 32.0387 49.8411 31.8869 49.8761 31.7119C49.9111 31.5251 49.9286 31.2859 49.9286 30.9941V22.6607Z" fill="#F2920C"/>
<path d="M64.9413 29.7686V22.6782C64.9413 22.3981 64.9121 22.1647 64.8537 21.978C64.7954 21.7912 64.7137 21.6395 64.6086 21.5228C64.5036 21.3944 64.3811 21.2894 64.241 21.2077C64.1126 21.1143 63.9084 20.9917 63.6283 20.84V20.7H67.0947V20.84C66.8145 20.9917 66.6103 21.1143 66.4819 21.2077C66.3535 21.2894 66.2368 21.3944 66.1317 21.5228C66.0267 21.6395 65.945 21.7912 65.8867 21.978C65.8283 22.1647 65.7991 22.3981 65.7991 22.6782V33.0949H65.554L56.7655 22.153V30.9766C56.7655 31.2567 56.7947 31.4901 56.853 31.6768C56.9114 31.8636 56.9931 32.0211 57.0981 32.1495C57.2032 32.2662 57.3199 32.3713 57.4483 32.4647C57.5883 32.5464 57.7984 32.6631 58.0785 32.8148V32.9549H54.6121V32.8148C54.8923 32.6631 55.0965 32.5464 55.2249 32.4647C55.3533 32.3713 55.47 32.2662 55.575 32.1495C55.6801 32.0211 55.7618 31.8636 55.8201 31.6768C55.8785 31.4901 55.9077 31.2567 55.9077 30.9766V22.6607C55.9077 22.369 55.8901 22.1355 55.8551 21.9605C55.8201 21.7737 55.7559 21.622 55.6625 21.5053C55.5808 21.3769 55.4758 21.266 55.3474 21.1726C55.2191 21.0793 55.0381 20.9684 54.8047 20.84V20.7H57.6934L64.9413 29.7686Z" fill="#F2920C"/>
<path d="M0.772036 43.1713V49.0846H0V43.1713H0.772036Z" fill="#42574E"/>
<path d="M6.99154 49.0846H6.2195L3.11439 44.376V49.0846H2.34235V43.1628H3.11439L6.2195 47.8629V43.1628H6.99154V49.0846Z" fill="#42574E"/>
<path d="M10.4371 49.1439C10.0468 49.1439 9.69614 49.0761 9.38506 48.9403C9.07964 48.7989 8.83926 48.6066 8.66393 48.3634C8.4886 48.1146 8.3981 47.8289 8.39244 47.5065H9.21538C9.24366 47.7837 9.35678 48.0184 9.55474 48.2107C9.75836 48.3974 10.0525 48.4907 10.4371 48.4907C10.8047 48.4907 11.0932 48.4002 11.3024 48.2192C11.5174 48.0325 11.6248 47.795 11.6248 47.5065C11.6248 47.2803 11.5626 47.0965 11.4382 46.9551C11.3137 46.8137 11.1582 46.7062 10.9716 46.6327C10.7849 46.5592 10.5332 46.48 10.2165 46.3952C9.82623 46.2933 9.51232 46.1915 9.27477 46.0897C9.04288 45.9879 8.84209 45.8296 8.67241 45.6146C8.50839 45.394 8.42638 45.0999 8.42638 44.7323C8.42638 44.4099 8.50839 44.1243 8.67241 43.8754C8.83644 43.6266 9.0655 43.4343 9.35961 43.2985C9.65938 43.1628 10.0016 43.0949 10.3862 43.0949C10.9404 43.0949 11.3929 43.2335 11.7436 43.5106C12.0999 43.7878 12.3007 44.1554 12.3459 44.6135H11.4976C11.4693 44.3873 11.3505 44.1893 11.1412 44.0197C10.932 43.8443 10.6548 43.7567 10.3098 43.7567C9.98742 43.7567 9.72442 43.8415 9.52081 44.0112C9.31719 44.1752 9.21538 44.4071 9.21538 44.7069C9.21538 44.9218 9.27477 45.0971 9.39355 45.2329C9.51798 45.3686 9.66786 45.4732 9.84319 45.5468C10.0242 45.6146 10.2759 45.6938 10.5983 45.7843C10.9885 45.8918 11.3024 45.9992 11.54 46.1067C11.7775 46.2085 11.9811 46.3697 12.1508 46.5903C12.3205 46.8052 12.4053 47.0993 12.4053 47.4726C12.4053 47.7611 12.329 48.0325 12.1763 48.2871C12.0236 48.5416 11.7973 48.748 11.4976 48.9064C11.1978 49.0648 10.8443 49.1439 10.4371 49.1439Z" fill="#42574E"/>
<path d="M17.4356 43.1713V43.7991H15.8236V49.0846H15.0516V43.7991H13.4312V43.1713H17.4356Z" fill="#42574E"/>
<path d="M19.4125 43.1713V49.0846H18.6404V43.1713H19.4125Z" fill="#42574E"/>
<path d="M24.6224 43.1713V43.7991H23.0104V49.0846H22.2384V43.7991H20.618V43.1713H24.6224Z" fill="#42574E"/>
<path d="M26.5823 43.1713V46.9127C26.5823 47.4387 26.7095 47.8289 26.9641 48.0834C27.2242 48.338 27.5834 48.4652 28.0415 48.4652C28.494 48.4652 28.8475 48.338 29.102 48.0834C29.3622 47.8289 29.4923 47.4387 29.4923 46.9127V43.1713H30.2643V46.9042C30.2643 47.3963 30.1653 47.812 29.9674 48.1513C29.7694 48.485 29.5007 48.7339 29.1614 48.8979C28.8277 49.0619 28.4516 49.1439 28.033 49.1439C27.6145 49.1439 27.2355 49.0619 26.8962 48.8979C26.5625 48.7339 26.2967 48.485 26.0987 48.1513C25.9064 47.812 25.8102 47.3963 25.8102 46.9042V43.1713H26.5823Z" fill="#42574E"/>
<path d="M35.4463 43.1713V43.7991H33.8344V49.0846H33.0623V43.7991H31.4419V43.1713H35.4463Z" fill="#42574E"/>
<path d="M37.4232 43.7991V45.7758H39.5781V46.4121H37.4232V48.4483H39.8326V49.0846H36.6512V43.1628H39.8326V43.7991H37.4232Z" fill="#42574E"/>
<path d="M47.1143 43.1713V43.7991H44.5437V45.7928H46.6308V46.4206H44.5437V49.0846H43.7717V43.1713H47.1143Z" fill="#42574E"/>
<path d="M50.9822 49.1439C50.4336 49.1439 49.933 49.0167 49.4806 48.7622C49.0281 48.502 48.6689 48.1428 48.4031 47.6847C48.1429 47.2209 48.0128 46.7006 48.0128 46.1237C48.0128 45.5468 48.1429 45.0292 48.4031 44.5711C48.6689 44.1073 49.0281 43.7482 49.4806 43.4937C49.933 43.2335 50.4336 43.1034 50.9822 43.1034C51.5365 43.1034 52.0399 43.2335 52.4923 43.4937C52.9448 43.7482 53.3011 44.1045 53.5613 44.5626C53.8215 45.0208 53.9516 45.5411 53.9516 46.1237C53.9516 46.7062 53.8215 47.2266 53.5613 47.6847C53.3011 48.1428 52.9448 48.502 52.4923 48.7622C52.0399 49.0167 51.5365 49.1439 50.9822 49.1439ZM50.9822 48.4737C51.3951 48.4737 51.7656 48.3776 52.0936 48.1853C52.4273 47.993 52.6875 47.7186 52.8741 47.3623C53.0664 47.006 53.1626 46.5931 53.1626 46.1237C53.1626 45.6486 53.0664 45.2357 52.8741 44.885C52.6875 44.5287 52.4301 44.2544 52.1021 44.0621C51.774 43.8698 51.4008 43.7736 50.9822 43.7736C50.5637 43.7736 50.1904 43.8698 49.8623 44.0621C49.5343 44.2544 49.2741 44.5287 49.0818 44.885C48.8952 45.2357 48.8018 45.6486 48.8018 46.1237C48.8018 46.5931 48.8952 47.006 49.0818 47.3623C49.2741 47.7186 49.5343 47.993 49.8623 48.1853C50.196 48.3776 50.5693 48.4737 50.9822 48.4737Z" fill="#42574E"/>
<path d="M58.3389 49.0846L56.9306 46.6666H55.9973V49.0846H55.2253V43.1713H57.1342C57.581 43.1713 57.9571 43.2476 58.2625 43.4003C58.5736 43.553 58.8055 43.7595 58.9582 44.0197C59.1109 44.2798 59.1873 44.5768 59.1873 44.9105C59.1873 45.3177 59.0685 45.6768 58.831 45.9879C58.5991 46.299 58.2484 46.5054 57.779 46.6072L59.2636 49.0846H58.3389ZM55.9973 46.0473H57.1342C57.5527 46.0473 57.8666 45.9455 58.0759 45.7419C58.2852 45.5326 58.3898 45.2555 58.3898 44.9105C58.3898 44.5598 58.2852 44.2883 58.0759 44.096C57.8723 43.9037 57.5584 43.8076 57.1342 43.8076H55.9973V46.0473Z" fill="#42574E"/>
<path d="M66.7973 43.1713V43.7991H65.1854V49.0846H64.4134V43.7991H62.7929V43.1713H66.7973Z" fill="#42574E"/>
<path d="M72.5581 43.1713V49.0846H71.786V46.4036H68.7742V49.0846H68.0022V43.1713H68.7742V45.7673H71.786V43.1713H72.5581Z" fill="#42574E"/>
<path d="M74.9029 43.7991V45.7758H77.0578V46.4121H74.9029V48.4483H77.3123V49.0846H74.1308V43.1628H77.3123V43.7991H74.9029Z" fill="#42574E"/>
<path d="M82.0234 43.7991V45.7758H84.1783V46.4121H82.0234V48.4483H84.4328V49.0846H81.2514V43.1628H84.4328V43.7991H82.0234Z" fill="#42574E"/>
<path d="M85.5671 46.1237C85.5671 45.5468 85.6972 45.0292 85.9573 44.5711C86.2175 44.1073 86.571 43.7453 87.0178 43.4852C87.4703 43.225 87.9708 43.0949 88.5195 43.0949C89.1643 43.0949 89.727 43.2504 90.2078 43.5615C90.6885 43.8726 91.0392 44.3138 91.2598 44.885H90.335C90.171 44.5287 89.9335 44.2544 89.6224 44.0621C89.317 43.8698 88.9493 43.7736 88.5195 43.7736C88.1066 43.7736 87.7361 43.8698 87.4081 44.0621C87.08 44.2544 86.8227 44.5287 86.6361 44.885C86.4494 45.2357 86.3561 45.6486 86.3561 46.1237C86.3561 46.5931 86.4494 47.006 86.6361 47.3623C86.8227 47.713 87.08 47.9845 87.4081 48.1768C87.7361 48.3691 88.1066 48.4652 88.5195 48.4652C88.9493 48.4652 89.317 48.3719 89.6224 48.1853C89.9335 47.993 90.171 47.7186 90.335 47.3623H91.2598C91.0392 47.9279 90.6885 48.3662 90.2078 48.6773C89.727 48.9827 89.1643 49.1355 88.5195 49.1355C87.9708 49.1355 87.4703 49.0082 87.0178 48.7537C86.571 48.4935 86.2175 48.1344 85.9573 47.6762C85.6972 47.2181 85.5671 46.7006 85.5671 46.1237Z" fill="#42574E"/>
<path d="M95.3445 49.1439C94.7958 49.1439 94.2953 49.0167 93.8428 48.7622C93.3903 48.502 93.0312 48.1428 92.7654 47.6847C92.5052 47.2209 92.3751 46.7006 92.3751 46.1237C92.3751 45.5468 92.5052 45.0292 92.7654 44.5711C93.0312 44.1073 93.3903 43.7482 93.8428 43.4937C94.2953 43.2335 94.7958 43.1034 95.3445 43.1034C95.8987 43.1034 96.4021 43.2335 96.8546 43.4937C97.3071 43.7482 97.6634 44.1045 97.9236 44.5626C98.1837 45.0208 98.3138 45.5411 98.3138 46.1237C98.3138 46.7062 98.1837 47.2266 97.9236 47.6847C97.6634 48.1428 97.3071 48.502 96.8546 48.7622C96.4021 49.0167 95.8987 49.1439 95.3445 49.1439ZM95.3445 48.4737C95.7573 48.4737 96.1278 48.3776 96.4558 48.1853C96.7896 47.993 97.0497 47.7186 97.2364 47.3623C97.4287 47.006 97.5248 46.5931 97.5248 46.1237C97.5248 45.6486 97.4287 45.2357 97.2364 44.885C97.0497 44.5287 96.7924 44.2544 96.4643 44.0621C96.1363 43.8698 95.763 43.7736 95.3445 43.7736C94.9259 43.7736 94.5526 43.8698 94.2246 44.0621C93.8965 44.2544 93.6364 44.5287 93.4441 44.885C93.2574 45.2357 93.1641 45.6486 93.1641 46.1237C93.1641 46.5931 93.2574 47.006 93.4441 47.3623C93.6364 47.7186 93.8965 47.993 94.2246 48.1853C94.5583 48.3776 94.9316 48.4737 95.3445 48.4737Z" fill="#42574E"/>
<path d="M104.237 49.0846H103.465L100.36 44.376V49.0846H99.5875V43.1628H100.36L103.465 47.8629V43.1628H104.237V49.0846Z" fill="#42574E"/>
<path d="M108.488 49.1439C107.94 49.1439 107.439 49.0167 106.987 48.7622C106.534 48.502 106.175 48.1428 105.909 47.6847C105.649 47.2209 105.519 46.7006 105.519 46.1237C105.519 45.5468 105.649 45.0292 105.909 44.5711C106.175 44.1073 106.534 43.7482 106.987 43.4937C107.439 43.2335 107.94 43.1034 108.488 43.1034C109.043 43.1034 109.546 43.2335 109.998 43.4937C110.451 43.7482 110.807 44.1045 111.067 44.5626C111.327 45.0208 111.458 45.5411 111.458 46.1237C111.458 46.7062 111.327 47.2266 111.067 47.6847C110.807 48.1428 110.451 48.502 109.998 48.7622C109.546 49.0167 109.043 49.1439 108.488 49.1439ZM108.488 48.4737C108.901 48.4737 109.272 48.3776 109.6 48.1853C109.933 47.993 110.193 47.7186 110.38 47.3623C110.572 47.006 110.669 46.5931 110.669 46.1237C110.669 45.6486 110.572 45.2357 110.38 44.885C110.193 44.5287 109.936 44.2544 109.608 44.0621C109.28 43.8698 108.907 43.7736 108.488 43.7736C108.07 43.7736 107.696 43.8698 107.368 44.0621C107.04 44.2544 106.78 44.5287 106.588 44.885C106.401 45.2357 106.308 45.6486 106.308 46.1237C106.308 46.5931 106.401 47.006 106.588 47.3623C106.78 47.7186 107.04 47.993 107.368 48.1853C107.702 48.3776 108.075 48.4737 108.488 48.4737Z" fill="#42574E"/>
<path d="M118.729 43.2137V49.0846H117.957V44.7069L116.006 49.0846H115.463L113.503 44.6984V49.0846H112.731V43.2137H113.563L115.735 48.0665L117.906 43.2137H118.729Z" fill="#42574E"/>
<path d="M124.433 43.1713L122.508 46.8533V49.0846H121.736V46.8533L119.801 43.1713H120.658L122.117 46.1661L123.577 43.1713H124.433Z" fill="#42574E"/>
<path d="M131.514 47.7695H128.935L128.46 49.0846H127.645L129.783 43.2052H130.674L132.804 49.0846H131.989L131.514 47.7695ZM131.293 47.1417L130.224 44.1554L129.155 47.1417H131.293Z" fill="#42574E"/>
<path d="M138.639 49.0846H137.867L134.762 44.376V49.0846H133.99V43.1628H134.762L137.867 47.8629V43.1628H138.639V49.0846Z" fill="#42574E"/>
<path d="M142.051 43.1713C142.695 43.1713 143.252 43.2929 143.722 43.5361C144.197 43.7736 144.559 44.1158 144.808 44.5626C145.062 45.0094 145.19 45.5354 145.19 46.1406C145.19 46.7458 145.062 47.2718 144.808 47.7186C144.559 48.1598 144.197 48.4992 143.722 48.7367C143.252 48.9686 142.695 49.0846 142.051 49.0846H140.21V43.1713H142.051ZM142.051 48.4483C142.814 48.4483 143.397 48.2475 143.798 47.8459C144.2 47.4387 144.401 46.8703 144.401 46.1406C144.401 45.4054 144.197 44.8313 143.79 44.4184C143.388 44.0055 142.808 43.7991 142.051 43.7991H140.982V48.4483H142.051Z" fill="#42574E"/>
<path d="M152.618 43.1713V43.7991H151.006V49.0846H150.234V43.7991H148.614V43.1713H152.618Z" fill="#42574E"/>
<path d="M158.379 43.1713V49.0846H157.607V46.4036H154.595V49.0846H153.823V43.1713H154.595V45.7673H157.607V43.1713H158.379Z" fill="#42574E"/>
<path d="M160.724 43.7991V45.7758H162.879V46.4121H160.724V48.4483H163.133V49.0846H159.952V43.1628H163.133V43.7991H160.724Z" fill="#42574E"/>
<path d="M170.415 43.1713V43.7991H167.844V45.7928H169.931V46.4206H167.844V49.0846H167.072V43.1713H170.415Z" fill="#42574E"/>
<path d="M172.357 43.1713V46.9127C172.357 47.4387 172.484 47.8289 172.739 48.0834C172.999 48.338 173.358 48.4652 173.816 48.4652C174.269 48.4652 174.622 48.338 174.877 48.0834C175.137 47.8289 175.267 47.4387 175.267 46.9127V43.1713H176.039V46.9042C176.039 47.3963 175.94 47.812 175.742 48.1513C175.544 48.485 175.276 48.7339 174.936 48.8979C174.603 49.0619 174.226 49.1439 173.808 49.1439C173.389 49.1439 173.01 49.0619 172.671 48.8979C172.337 48.7339 172.071 48.485 171.874 48.1513C171.681 47.812 171.585 47.3963 171.585 46.9042V43.1713H172.357Z" fill="#42574E"/>
<path d="M181.221 43.1713V43.7991H179.609V49.0846H178.837V43.7991H177.217V43.1713H181.221Z" fill="#42574E"/>
<path d="M183.181 43.1713V46.9127C183.181 47.4387 183.308 47.8289 183.563 48.0834C183.823 48.338 184.182 48.4652 184.64 48.4652C185.093 48.4652 185.446 48.338 185.701 48.0834C185.961 47.8289 186.091 47.4387 186.091 46.9127V43.1713H186.863V46.9042C186.863 47.3963 186.764 47.812 186.566 48.1513C186.368 48.485 186.1 48.7339 185.76 48.8979C185.426 49.0619 185.05 49.1439 184.632 49.1439C184.213 49.1439 183.834 49.0619 183.495 48.8979C183.161 48.7339 182.895 48.485 182.697 48.1513C182.505 47.812 182.409 47.3963 182.409 46.9042V43.1713H183.181Z" fill="#42574E"/>
<path d="M191.519 49.0846L190.111 46.6666H189.177V49.0846H188.405V43.1713H190.314C190.761 43.1713 191.137 43.2476 191.443 43.4003C191.754 43.553 191.986 43.7595 192.138 44.0197C192.291 44.2798 192.367 44.5768 192.367 44.9105C192.367 45.3177 192.249 45.6768 192.011 45.9879C191.779 46.299 191.429 46.5054 190.959 46.6072L192.444 49.0846H191.519ZM189.177 46.0473H190.314C190.733 46.0473 191.047 45.9455 191.256 45.7419C191.465 45.5326 191.57 45.2555 191.57 44.9105C191.57 44.5598 191.465 44.2883 191.256 44.096C191.052 43.9037 190.739 43.8076 190.314 43.8076H189.177V46.0473Z" fill="#42574E"/>
<path d="M194.594 43.7991V45.7758H196.749V46.4121H194.594V48.4483H197.003V49.0846H193.822V43.1628H197.003V43.7991H194.594Z" fill="#42574E"/>
<path d="M203.623 49.1439C203.074 49.1439 202.574 49.0167 202.121 48.7622C201.669 48.502 201.31 48.1428 201.044 47.6847C200.784 47.2209 200.654 46.7006 200.654 46.1237C200.654 45.5468 200.784 45.0292 201.044 44.5711C201.31 44.1073 201.669 43.7482 202.121 43.4937C202.574 43.2335 203.074 43.1034 203.623 43.1034C204.177 43.1034 204.681 43.2335 205.133 43.4937C205.586 43.7482 205.942 44.1045 206.202 44.5626C206.462 45.0208 206.592 45.5411 206.592 46.1237C206.592 46.7062 206.462 47.2266 206.202 47.6847C205.942 48.1428 205.586 48.502 205.133 48.7622C204.681 49.0167 204.177 49.1439 203.623 49.1439ZM203.623 48.4737C204.036 48.4737 204.406 48.3776 204.734 48.1853C205.068 47.993 205.328 47.7186 205.515 47.3623C205.707 47.006 205.803 46.5931 205.803 46.1237C205.803 45.6486 205.707 45.2357 205.515 44.885C205.328 44.5287 205.071 44.2544 204.743 44.0621C204.415 43.8698 204.042 43.7736 203.623 43.7736C203.204 43.7736 202.831 43.8698 202.503 44.0621C202.175 44.2544 201.915 44.5287 201.723 44.885C201.536 45.2357 201.443 45.6486 201.443 46.1237C201.443 46.5931 201.536 47.006 201.723 47.3623C201.915 47.7186 202.175 47.993 202.503 48.1853C202.837 48.3776 203.21 48.4737 203.623 48.4737Z" fill="#42574E"/>
<path d="M211.209 43.1713V43.7991H208.638V45.7928H210.725V46.4206H208.638V49.0846H207.866V43.1713H211.209Z" fill="#42574E"/>
<path d="M222.344 43.1713L220.63 49.0846H219.765L218.39 44.3251L216.965 49.0846L216.108 49.093L214.454 43.1713H215.277L216.566 48.1853L217.992 43.1713H218.857L220.215 48.1683L221.513 43.1713H222.344Z" fill="#42574E"/>
<path d="M226.124 49.1439C225.576 49.1439 225.075 49.0167 224.623 48.7622C224.17 48.502 223.811 48.1428 223.545 47.6847C223.285 47.2209 223.155 46.7006 223.155 46.1237C223.155 45.5468 223.285 45.0292 223.545 44.5711C223.811 44.1073 224.17 43.7482 224.623 43.4937C225.075 43.2335 225.576 43.1034 226.124 43.1034C226.679 43.1034 227.182 43.2335 227.634 43.4937C228.087 43.7482 228.443 44.1045 228.703 44.5626C228.964 45.0208 229.094 45.5411 229.094 46.1237C229.094 46.7062 228.964 47.2266 228.703 47.6847C228.443 48.1428 228.087 48.502 227.634 48.7622C227.182 49.0167 226.679 49.1439 226.124 49.1439ZM226.124 48.4737C226.537 48.4737 226.908 48.3776 227.236 48.1853C227.569 47.993 227.83 47.7186 228.016 47.3623C228.209 47.006 228.305 46.5931 228.305 46.1237C228.305 45.6486 228.209 45.2357 228.016 44.885C227.83 44.5287 227.572 44.2544 227.244 44.0621C226.916 43.8698 226.543 43.7736 226.124 43.7736C225.706 43.7736 225.332 43.8698 225.004 44.0621C224.676 44.2544 224.416 44.5287 224.224 44.885C224.037 45.2357 223.944 45.6486 223.944 46.1237C223.944 46.5931 224.037 47.006 224.224 47.3623C224.416 47.7186 224.676 47.993 225.004 48.1853C225.338 48.3776 225.711 48.4737 226.124 48.4737Z" fill="#42574E"/>
<path d="M233.481 49.0846L232.073 46.6666H231.139V49.0846H230.367V43.1713H232.276C232.723 43.1713 233.099 43.2476 233.405 43.4003C233.716 43.553 233.948 43.7595 234.1 44.0197C234.253 44.2798 234.329 44.5768 234.329 44.9105C234.329 45.3177 234.211 45.6768 233.973 45.9879C233.741 46.299 233.39 46.5054 232.921 46.6072L234.406 49.0846H233.481ZM231.139 46.0473H232.276C232.695 46.0473 233.009 45.9455 233.218 45.7419C233.427 45.5326 233.532 45.2555 233.532 44.9105C233.532 44.5598 233.427 44.2883 233.218 44.096C233.014 43.9037 232.7 43.8076 232.276 43.8076H231.139V46.0473Z" fill="#42574E"/>
<path d="M238.99 49.0846L236.556 46.3867V49.0846H235.783V43.1713H236.556V45.9116L238.999 43.1713H239.975L237.294 46.1321L240 49.0846H238.99Z" fill="#42574E"/>
</svg>
